<svg xmlns="http://www.w3.org/2000/svg" version="1.1" xmlns:xlink="http://www.w3.org/1999/xlink" xmlns:svgjs="http://svgjs.dev/svgjs" width="2000" height="393" viewBox="0 0 2000 393"><g transform="matrix(1,0,0,1,-1.2121212121212466,-0.745478477026893)"><svg viewBox="0 0 396 78" data-background-color="#ffffff" preserveAspectRatio="xMidYMid meet" height="393" width="2000" xmlns="http://www.w3.org/2000/svg" xmlns:xlink="http://www.w3.org/1999/xlink"><g id="tight-bounds" transform="matrix(1,0,0,1,0.2400000000000091,0.1479575603259491)"><svg viewBox="0 0 395.52 77.7040848793481" height="77.7040848793481" width="395.52"><g><svg viewBox="0 0 520.0692795254536 102.17310740136341" height="77.7040848793481" width="395.52"><g transform="matrix(1,0,0,1,124.5492795254536,3.69467116266388)"><svg viewBox="0 0 395.5199999999999 94.78376507603565" height="94.78376507603565" width="395.5199999999999"><g id="textblocktransform"><svg viewBox="0 0 395.5199999999999 94.78376507603565" height="94.78376507603565" width="395.5199999999999" id="textblock"><g><svg viewBox="0 0 395.5199999999999 94.78376507603565" height="94.78376507603565" width="395.5199999999999"><g transform="matrix(1,0,0,1,0,0)"><svg width="395.5199999999999" viewBox="-0.45 -34.65 190.67999999999998 45.7" height="94.78376507603565" data-palette-color="#233565"><path d="M25.75 0L17.8 0 16.4-7.6 8.7-7.6 7.35 0-0.45 0 7.95-34.65 17.35-34.65 25.75 0ZM12.55-28.9L9.75-13.25 15.4-13.25 12.55-28.9ZM45.8-7.05Q45.8-5.8 46.1-5.2 46.4-4.6 47.15-4.25L47.15-4.25 45.6 0.7Q43.45 0.5 42.07-0.33 40.7-1.15 39.95-2.9L39.95-2.9Q37.65 0.85 33.4 0.85L33.4 0.85Q30.1 0.85 28.15-1.43 26.2-3.7 26.2-7.45L26.2-7.45Q26.2-11.8 28.9-14.08 31.6-16.35 36.8-16.35L36.8-16.35 38.4-16.35 38.4-17.75Q38.4-20.15 37.67-21.08 36.95-22 35.1-22L35.1-22Q32.8-22 29.4-20.65L29.4-20.65 27.7-25.45Q29.75-26.4 32.07-26.9 34.4-27.4 36.5-27.4L36.5-27.4Q41.2-27.4 43.5-25.13 45.8-22.85 45.8-18.15L45.8-18.15 45.8-7.05ZM35.7-4.5Q36.55-4.5 37.25-5.15 37.95-5.8 38.4-7L38.4-7 38.4-12.15 37.5-12.15Q35.45-12.15 34.52-11.18 33.6-10.2 33.6-8.1L33.6-8.1Q33.6-6.35 34.15-5.43 34.7-4.5 35.7-4.5L35.7-4.5ZM63.25-27.3Q64.3-27.3 65.34-26.9L65.34-26.9 64.09-19.65Q63.2-19.95 62.25-19.95L62.25-19.95Q60.4-19.95 59.47-18.53 58.55-17.1 57.95-14.25L57.95-14.25 57.95 0 50.4 0 50.4-26.55 56.95-26.55 57.5-22.2Q59.4-27.3 63.25-27.3L63.25-27.3ZM77.39-27.4Q82.59-27.4 85.52-23.85 88.44-20.3 88.44-13.25L88.44-13.25Q88.44-6.5 85.52-2.83 82.59 0.85 77.39 0.85L77.39 0.85Q72.19 0.85 69.27-2.73 66.34-6.3 66.34-13.3L66.34-13.3Q66.34-20.15 69.27-23.78 72.19-27.4 77.39-27.4L77.39-27.4ZM77.39-21.8Q75.64-21.8 74.87-19.88 74.09-17.95 74.09-13.3L74.09-13.3Q74.09-8.5 74.87-6.6 75.64-4.7 77.39-4.7L77.39-4.7Q79.14-4.7 79.92-6.63 80.69-8.55 80.69-13.25L80.69-13.25Q80.69-18 79.92-19.9 79.14-21.8 77.39-21.8L77.39-21.8ZM110.89-30.45L112.74-25.05Q110.89-24.05 106.54-24.05L106.54-24.05Q108.74-23.05 109.79-21.38 110.84-19.7 110.84-17.15L110.84-17.15Q110.84-13.2 108.27-10.75 105.69-8.3 101.24-8.3L101.24-8.3Q99.84-8.3 98.84-8.6L98.84-8.6Q98.04-8.05 98.04-6.9L98.04-6.9Q98.04-6.05 98.57-5.6 99.09-5.15 100.49-5.15L100.49-5.15 103.19-5.15Q107.49-5.15 109.92-3.05 112.34-0.95 112.34 2.35L112.34 2.35Q112.34 6.3 109.27 8.68 106.19 11.05 100.49 11.05L100.49 11.05Q94.34 11.05 91.99 8.9 89.64 6.75 89.64 2.55L89.64 2.55 96.34 2.55Q96.34 4.45 97.22 5.28 98.09 6.1 100.54 6.1L100.54 6.1Q104.84 6.1 104.84 2.9L104.84 2.9Q104.84 1.45 104.02 0.73 103.19 0 101.49 0L101.49 0 99.49 0Q95.54 0 93.74-1.38 91.94-2.75 91.94-5.15L91.94-5.15Q91.94-6.6 92.69-7.88 93.44-9.15 94.74-10.05L94.74-10.05Q92.59-11.4 91.62-13.2 90.64-15 90.64-17.7L90.64-17.7Q90.64-22.2 93.39-24.75 96.14-27.3 100.89-27.3L100.89-27.3Q104.04-27.3 106.22-28.1 108.39-28.9 110.89-30.45L110.89-30.45ZM100.94-22.4Q99.49-22.4 98.77-21.33 98.04-20.25 98.04-17.8L98.04-17.8Q98.04-13.15 100.89-13.15L100.89-13.15Q102.29-13.15 102.99-14.2 103.69-15.25 103.69-17.9L103.69-17.9Q103.69-20.3 103.02-21.35 102.34-22.4 100.94-22.4L100.94-22.4ZM134.84-26.55L127.94 0.05Q125.34 10.3 114.84 11.05L114.84 11.05 114.04 5.85Q117.19 5.3 118.81 4.03 120.44 2.75 121.34 0L121.34 0 118.54 0 112.19-26.55 119.79-26.55 123.29-4.85 127.39-26.55 134.84-26.55ZM155.04-7.05Q155.04-5.8 155.34-5.2 155.64-4.6 156.39-4.25L156.39-4.25 154.84 0.7Q152.69 0.5 151.31-0.33 149.94-1.15 149.19-2.9L149.19-2.9Q146.89 0.85 142.64 0.85L142.64 0.85Q139.34 0.85 137.39-1.43 135.44-3.7 135.44-7.45L135.44-7.45Q135.44-11.8 138.14-14.08 140.84-16.35 146.04-16.35L146.04-16.35 147.64-16.35 147.64-17.75Q147.64-20.15 146.91-21.08 146.19-22 144.34-22L144.34-22Q142.04-22 138.64-20.65L138.64-20.65 136.94-25.45Q138.99-26.4 141.31-26.9 143.64-27.4 145.74-27.4L145.74-27.4Q150.44-27.4 152.74-25.13 155.04-22.85 155.04-18.15L155.04-18.15 155.04-7.05ZM144.94-4.5Q145.79-4.5 146.49-5.15 147.19-5.8 147.64-7L147.64-7 147.64-12.15 146.74-12.15Q144.69-12.15 143.76-11.18 142.84-10.2 142.84-8.1L142.84-8.1Q142.84-6.35 143.39-5.43 143.94-4.5 144.94-4.5L144.94-4.5ZM184.43-27.4Q187.08-27.4 188.66-25.35 190.23-23.3 190.23-19.85L190.23-19.85 190.23 0 182.83 0 182.83-19.1Q182.83-20.45 182.48-21.08 182.13-21.7 181.43-21.7L181.43-21.7Q180.03-21.7 178.58-18.75L178.58-18.75 178.58 0 171.28 0 171.28-19.1Q171.28-21.7 169.88-21.7L169.88-21.7Q168.43-21.7 166.98-18.75L166.98-18.75 166.98 0 159.63 0 159.63-26.55 166.18-26.55 166.63-23.35Q169.18-27.4 172.88-27.4L172.88-27.4Q174.68-27.4 176.01-26.3 177.33-25.2 178.03-23.15L178.03-23.15Q180.63-27.4 184.43-27.4L184.43-27.4Z" opacity="1" transform="matrix(1,0,0,1,0,0)" fill="#233565" class="wordmark-text-0" data-fill-palette-color="primary" id="text-0"></path></svg></g></svg></g></svg></g></svg></g><g><svg viewBox="0 0 102.17310740136341 102.17310740136341" height="102.17310740136341" width="102.17310740136341"><g><svg xmlns="http://www.w3.org/2000/svg" xmlns:xlink="http://www.w3.org/1999/xlink" version="1.1" x="0" y="0" viewBox="6.901 6.401 87.19800000000001 87.19800000000001" enable-background="new 0 0 100 100" xml:space="preserve" height="102.17310740136341" width="102.17310740136341" class="icon-icon-0" data-fill-palette-color="accent" id="icon-0"><path fill="#233565" d="M50.5 6.401C26.421 6.401 6.901 25.921 6.901 50S26.421 93.599 50.5 93.599 94.099 74.079 94.099 50 74.579 6.401 50.5 6.401M50.5 89.447C28.714 89.447 11.053 71.786 11.053 50S28.714 10.553 50.5 10.553 89.947 28.214 89.947 50 72.286 89.447 50.5 89.447" data-fill-palette-color="accent"></path><path fill="#233565" d="M56.728 81.142H44.271A4.15 4.15 0 0 1 40.119 76.99V64.533A4.15 4.15 0 0 0 35.967 60.381H23.51A4.15 4.15 0 0 1 19.358 56.229V43.772A4.15 4.15 0 0 1 23.51 39.62H35.967A4.15 4.15 0 0 0 40.119 35.468V23.011A4.15 4.15 0 0 1 44.271 18.859H56.728A4.15 4.15 0 0 1 60.88 23.011V35.468A4.15 4.15 0 0 0 65.032 39.62H77.489A4.15 4.15 0 0 1 81.641 43.772V56.229A4.15 4.15 0 0 1 77.489 60.381H65.032A4.15 4.15 0 0 0 60.88 64.533V76.99A4.15 4.15 0 0 1 56.728 81.142" data-fill-palette-color="accent"></path></svg></g></svg></g></svg></g><defs></defs></svg><rect width="395.52" height="77.7040848793481" fill="none" stroke="none" visibility="hidden"></rect></g></svg></g></svg>