<svg xmlns="http://www.w3.org/2000/svg" version="1.1" xmlns:xlink="http://www.w3.org/1999/xlink" xmlns:svgjs="http://svgjs.dev/svgjs" width="128" height="128" viewBox="0 0 128 128"><g transform="matrix(0.8046875,0,0,0.8046875,12.221578124999994,12.221578124999994)"><svg viewBox="0 0 96 96" data-background-color="#ffffff" preserveAspectRatio="xMidYMid meet" height="128" width="128" xmlns="http://www.w3.org/2000/svg" xmlns:xlink="http://www.w3.org/1999/xlink"><g id="tight-bounds" transform="matrix(1,0,0,1,0.25950000000000273,0.25950000000000273)"><svg viewBox="0 0 95.481 95.481" height="95.481" width="95.481"><g><svg viewBox="0 0 95.481 95.481" height="95.481" width="95.481"><g><svg viewBox="0 0 95.481 95.481" height="95.481" width="95.481"><g id="textblocktransform"><svg viewBox="0 0 95.481 95.481" height="95.481" width="95.481" id="textblock"><g><svg viewBox="0 0 95.481 95.481" height="95.481" width="95.481"><g><svg viewBox="0 0 95.481 95.481" height="95.481" width="95.481"><g><svg xmlns="http://www.w3.org/2000/svg" xmlns:xlink="http://www.w3.org/1999/xlink" version="1.1" x="0" y="0" viewBox="6.901 6.401 87.19800000000001 87.19800000000001" enable-background="new 0 0 100 100" xml:space="preserve" height="95.481" width="95.481" class="icon-icon-0" data-fill-palette-color="accent" id="icon-0"><path fill="#233565" d="M50.5 6.401C26.421 6.401 6.901 25.921 6.901 50S26.421 93.599 50.5 93.599 94.099 74.079 94.099 50 74.579 6.401 50.5 6.401M50.5 89.447C28.714 89.447 11.053 71.786 11.053 50S28.714 10.553 50.5 10.553 89.947 28.214 89.947 50 72.286 89.447 50.5 89.447" data-fill-palette-color="accent"></path><path fill="#233565" d="M56.728 81.142H44.271A4.15 4.15 0 0 1 40.119 76.99V64.533A4.15 4.15 0 0 0 35.967 60.381H23.51A4.15 4.15 0 0 1 19.358 56.229V43.772A4.15 4.15 0 0 1 23.51 39.62H35.967A4.15 4.15 0 0 0 40.119 35.468V23.011A4.15 4.15 0 0 1 44.271 18.859H56.728A4.15 4.15 0 0 1 60.88 23.011V35.468A4.15 4.15 0 0 0 65.032 39.62H77.489A4.15 4.15 0 0 1 81.641 43.772V56.229A4.15 4.15 0 0 1 77.489 60.381H65.032A4.15 4.15 0 0 0 60.88 64.533V76.99A4.15 4.15 0 0 1 56.728 81.142" data-fill-palette-color="accent"></path></svg></g></svg></g></svg></g></svg></g></svg></g></svg></g><defs></defs></svg><rect width="95.481" height="95.481" fill="none" stroke="none" visibility="hidden"></rect></g></svg></g></svg>